<svg width="208" height="102" viewBox="0 0 208 102" fill="none" xmlns="http://www.w3.org/2000/svg">
<path d="M50.4645 50.891C48.4074 50.4568 46.5735 49.5641 44.9881 48.1162C44.1954 47.3923 44.1558 46.5551 44.4443 45.6486C44.7455 44.6937 45.4189 44.0945 46.4832 44.3726C48.963 44.9689 51.3818 45.601 53.8489 46.2457C55.9164 46.8377 57.8855 46.422 59.8106 45.5815C60.6752 45.239 61.1094 43.1819 60.4492 42.5443C57.9891 40.0926 55.1965 38.1225 51.9092 37.0568C49.5767 36.2922 48.0649 34.7602 46.6163 32.9863C45.3003 31.2987 45.3876 28.7893 47.0015 27.5573C50.6944 24.6981 54.6709 22.5332 59.6349 23.3136C60.979 23.5098 62.4137 23.1612 63.7094 23.3447C64.7989 23.5261 65.9094 24.023 66.7884 24.6145C67.27 24.947 67.6691 26.1883 67.3365 26.6698C67.2376 26.8507 67.0546 26.9579 66.8715 27.0651C65.0053 28.0761 62.4474 27.9761 60.4366 27.7607C57.6264 27.4398 54.9526 27.9814 52.5224 29.5685C51.5208 30.237 51.4175 30.8301 52.3069 31.5794C54.988 33.7787 58.1385 35.1704 61.1669 36.6337C63.7495 37.8254 64.8298 40.0198 66.0195 42.1911C66.2927 42.7276 66.2839 43.5522 66.1196 44.1811C65.4557 47.315 63.7571 49.6619 60.6183 50.5987C57.2607 51.5817 53.8678 51.3152 50.4645 50.891Z" fill="black"/>
<path d="M72.7425 42.2722C72.4843 43.6991 72.2663 45.184 71.8113 46.5752C71.615 47.0986 70.8104 47.6135 70.1755 47.7527C69.1202 47.9682 68.0912 47.4771 67.7595 46.5025C66.8632 44.1553 66.709 41.6376 67.7939 39.2934C68.3117 38.1168 68.7447 37.1281 68.2607 35.8718C67.2078 33.5471 67.4478 31.6597 68.944 29.2882C70.4402 26.9168 70.4689 23.67 70.0013 20.6383C69.8664 19.6992 69.7985 18.6707 70.066 17.7537C70.2043 17.2706 71.0267 16.6572 71.5946 16.6076C72.2206 16.5176 73.3344 16.8208 73.5092 17.2589C74.0874 18.8371 74.5002 20.487 74.7564 22.1594C75.0666 24.0956 75.1218 26.0364 75.1682 28.0265C75.1958 28.9969 75.0135 30.2851 75.9619 30.6599C77.7692 31.3427 79.7016 31.8957 81.6687 31.1338C82.0488 30.9993 82.4016 30.4534 82.5309 30.0195C83.1242 28.1452 83.4134 26.2667 82.9153 24.2457C82.6417 23.2307 84.1074 21.87 85.1182 21.9005C86.2854 21.9085 87.1045 22.7173 87.1991 23.5982C87.6535 26.9833 88.108 30.3683 87.7977 33.7674C87.5891 35.7621 87.2419 37.6809 86.8857 39.649C86.4541 42.3147 86.0314 44.9313 86.6508 47.6856C86.9202 49.0047 86.3311 50.5749 85.8761 51.9661C85.729 52.4984 84.8752 53.0044 84.2403 53.1436C83.2253 53.4172 82.1963 52.9261 81.8646 51.9514C81.2414 50.0602 80.8732 48.1644 81.2471 46.0979C81.728 43.4411 82.0612 40.7575 82.4436 38.0829C82.5636 37.1392 81.8115 36.2409 80.7783 36.0539C80.5323 36.0094 80.2863 35.9648 80.0403 35.9203C78.2602 35.649 75.7017 35.186 74.3569 36.721C73.7894 37.3297 73.5396 38.1483 73.348 38.9266C73.094 40.0493 72.8981 41.1317 72.7425 42.2722Z" fill="black"/>
<path d="M96.6154 24.826C98.0372 24.3453 99.8978 23.7531 101.999 24.0855C104.849 24.5637 106.699 25.7915 107.818 28.6291C109.823 33.5378 108.585 37.635 105.456 41.5343C105.275 41.7626 105.685 42.57 105.983 42.9385C106.165 43.1373 106.733 43.0843 107.131 43.1485C107.909 43.2299 108.734 43.2938 109.501 43.4865C113.943 44.2213 117.087 47.046 119.699 50.4445C119.998 50.813 120.051 51.8078 119.747 52.1357C119.244 52.6451 118.466 52.9908 117.775 53.1434C117.208 53.1964 116.546 52.8574 116.107 52.5416C115.247 51.9569 114.509 51.2727 113.771 50.5884C110.978 47.8454 107.519 47.1686 103.786 47.1825C102.188 47.1951 100.555 47.1142 98.9987 47.3784C98.4019 47.4958 97.8461 47.8648 97.2904 48.2338C96.8107 48.5208 96.7233 49.1412 97.0103 49.6209C97.2446 49.9602 97.4321 50.3171 97.5903 50.7383C98.1706 52.2829 99.289 53.4117 100.425 54.5873C100.999 55.1195 101.274 56.1376 100.602 56.7642C100.128 57.2092 99.2212 57.4965 98.478 57.5086C97.448 57.4683 96.6166 56.8192 96.0601 55.9066C94.3203 52.9816 92.1769 50.2616 91.2913 46.9089C90.8339 45.2647 90.1892 43.6909 89.4977 42.1347C88.1735 39.3206 88.3357 36.4823 88.7144 33.5092C89.1626 29.4418 91.2971 26.8773 95.024 25.4238C95.3985 25.2831 95.7729 25.1425 96.6154 24.826ZM93.2959 32.4824C92.3848 35.6021 92.7905 38.8146 93.0845 41.1611C93.876 43.6946 95.0642 44.1562 96.5734 43.0552C98.4979 41.6378 100.323 40.0977 102.148 38.5575C104.616 36.4552 104.556 33.5936 104.227 30.7262C104.168 30.4278 103.869 30.0593 103.576 29.8488C101.879 28.457 99.8302 28.2651 97.9052 28.828C96.5887 29.1624 95.4247 30.1872 94.3016 31.0364C93.8395 31.3702 93.4653 31.9381 93.2959 32.4824Z" fill="black"/>
<path d="M126.824 48.7487C126.675 49.1332 126.545 49.772 126.185 50.2311C125.528 51.0561 124.71 51.5587 123.569 51.4165C122.62 51.3486 121.509 50.5551 121.317 49.6745C121.137 48.6947 120.956 47.7149 121.08 46.7226C121.482 42.6913 122.026 38.7282 122.527 34.7094C122.799 32.1231 123.425 29.5306 122.438 26.9386C122.277 26.6162 122.438 26.1324 122.487 25.7355C122.518 24.278 123.826 22.2744 124.657 22.4788C125.488 22.6832 127.101 24.6982 126.965 25.7898C126.514 30.218 127.731 34.6022 126.876 39.0305C126.362 41.5362 125.886 44.1473 126.922 46.7455C127.108 47.2726 126.873 47.9486 126.824 48.7487Z" fill="black"/>
<path d="M163.338 12.6462C163.219 11.6735 163.464 10.7971 164.307 10.1996C165.333 9.36808 166.653 9.20567 167.789 9.84169C169.307 10.7129 171.813 12.1677 170.404 13.8928C169.542 14.9156 167.9 15.3292 166.77 15.8914C166.579 16.056 166.137 15.8988 165.911 15.7855C164.202 15.0789 163.535 14.2441 163.338 12.6462ZM153.297 19.3122C153.106 19.4768 152.759 19.5195 152.489 19.6232C150.753 19.2725 149.131 18.6963 147.979 17.357C147.407 16.7221 147.245 15.402 147.723 14.7084C148.133 14.0232 148.62 13.3991 149.186 12.8358C150.516 11.6141 152.34 11.5309 153.814 12.619C155.444 13.829 155.892 15.7487 154.846 17.57C154.498 18.1771 153.863 18.7489 153.297 19.3122ZM154.438 29.7279C157.268 29.8029 159.965 27.0731 162.784 28.2073C163.453 28.4778 164.503 28.419 165.103 28.1337C168.667 26.1436 172.814 27.7492 176.67 26.9926C177.356 26.8377 178.164 26.5267 178.747 26.1024C180.103 25.0892 181.607 24.1283 183.012 25.225C184.884 26.6873 186.322 28.6263 185.804 31.2995C184.7 36.6544 182.719 41.7645 179.984 46.4738C176.151 53.1518 170.589 55.5287 162.916 54.498C161.918 54.4093 160.858 54.3985 159.799 54.3878C158.115 54.454 156.831 53.7656 155.522 52.8687C150.354 49.2729 147.316 44.0749 144.548 38.7732C142.723 35.4009 145.162 31.1512 149.019 30.3946C150.808 30.0334 152.631 29.9502 154.438 29.7279ZM165.543 34.0038C161.878 34.5958 158.315 36.0215 155.026 35.0861C153.645 35.3266 152.742 35.4377 151.917 35.6097C150.814 35.816 149.917 37.1253 150.323 38.1332C150.79 39.0632 151.266 40.0626 151.872 40.9754C156.071 47.0178 156.275 49.2496 164.934 47.9727C166.037 47.7665 167.416 48.6548 168.285 48.2657C171.144 46.856 174.073 45.4378 175.459 42.3756C176.776 39.3219 178.241 36.3206 179.558 33.267C179.602 33.05 179.021 32.3456 178.665 32.3189C177.806 32.213 176.903 32.3241 176 32.4352C172.534 32.9321 168.991 33.368 165.543 34.0038Z" fill="black"/>
<path d="M33.6746 71.633C35.053 71.9631 36.3032 72.5612 36.8156 74.0134C37.1844 74.8483 37.3086 75.621 37.4095 76.3277C37.4948 77.411 37.4909 78.4517 37.4247 79.7369C37.3858 81.3095 36.7411 82.4277 35.153 82.7654C33.4988 83.1263 31.5808 82.3185 30.8043 80.9594C29.5464 78.6568 28.9525 76.3425 30.5253 73.8576C31.5156 72.2463 32.4515 71.3222 33.6746 71.633ZM22.2371 53.1028C20.7579 50.804 19.6748 48.3654 18.5257 45.9501C17.4231 43.6669 16.1031 41.6089 14.519 39.644C13.9988 39.011 13.7853 38.1956 13.5058 37.4035C12.8342 35.7105 13.8829 32.3712 15.3701 31.3269C16.4186 30.5116 19.9674 32.1543 20.8409 33.9988C21.3456 35.0084 21.7182 36.0646 22.0909 37.1207C23.3021 40.5533 24.5133 43.9859 25.7244 47.4185C27.285 51.8413 28.8688 56.33 30.3867 60.8421C30.507 61.3935 29.9283 62.4884 29.3575 62.764C28.7867 63.0397 27.6335 62.927 27.1171 62.5153C26.2435 61.9328 25.4748 61.0164 24.9934 60.0728C24.0228 57.743 23.5571 55.1608 22.2371 53.1028Z" fill="black"/>
</svg>
